<svg width="497.25" height="91.43770412277063" viewBox="0 0 312.5 57.464620489423474" class="looka-1j8o68f"><defs id="SvgjsDefs3492"></defs><g id="SvgjsG3493" featurekey="symbolFeature-0" transform="matrix(0.6012626460519852,0,0,0.6012626460519852,-0.06313251762754044,-2.661789761595758)" fill="#35d0ba"><g xmlns="http://www.w3.org/2000/svg" display="none"><circle display="inline" cx="29.207" cy="20.747" r="6.217"></circle><circle display="inline" cx="11.902" cy="43.783" r="6.217"></circle><rect x="17.93" y="46.13" transform="matrix(0.7071 0.7071 -0.7071 0.7071 40.9816 -0.454)" display="inline" width="6.218" height="6.217"></rect><rect x="13.531" y="50.525" transform="matrix(0.7071 0.7071 -0.7071 0.7071 42.7979 3.9429)" display="inline" width="6.218" height="6.217"></rect><rect x="9.137" y="54.92" transform="matrix(0.7071 0.7071 -0.7071 0.7071 44.6222 8.3396)" display="inline" width="6.217" height="6.218"></rect><rect x="17.928" y="54.921" transform="matrix(0.707 0.7072 -0.7072 0.707 47.2039 2.1251)" display="inline" width="6.218" height="6.217"></rect><rect x="13.531" y="59.315" transform="matrix(0.7071 0.7071 -0.7071 0.7071 49.0139 6.5177)" display="inline" width="6.218" height="6.217"></rect><rect x="22.202" y="59.195" transform="matrix(0.7071 0.7071 -0.7071 0.7071 51.4722 0.3522)" display="inline" width="6.219" height="6.217"></rect><rect x="26.598" y="54.738" transform="matrix(0.7071 0.7071 -0.7071 0.7071 49.6082 -4.062)" display="inline" width="6.219" height="6.217"></rect><rect x="30.996" y="59.134" transform="matrix(0.707 0.7072 -0.7072 0.707 54.0123 -5.8821)" display="inline" width="6.218" height="6.217"></rect><rect x="35.39" y="63.529" transform="matrix(0.7071 0.7071 -0.7071 0.7071 58.4002 -7.7041)" display="inline" width="6.219" height="6.217"></rect><rect x="39.788" y="67.925" transform="matrix(0.707 0.7072 -0.7072 0.707 62.8013 -9.5256)" display="inline" width="6.218" height="6.217"></rect><rect x="17.808" y="63.59" transform="matrix(0.7071 0.7071 -0.7071 0.7071 53.2931 4.7475)" display="inline" width="6.217" height="6.218"></rect><rect x="22.174" y="67.956" transform="matrix(0.7071 0.7071 -0.7071 0.7071 57.6516 2.9346)" display="inline" width="6.218" height="6.217"></rect><rect x="26.528" y="72.319" transform="matrix(0.7071 0.7071 -0.7071 0.7071 62.0158 1.1361)" display="inline" width="6.218" height="6.217"></rect><rect x="22.172" y="76.679" transform="matrix(0.7069 0.7073 -0.7073 0.7069 63.8433 5.5033)" display="inline" width="6.219" height="6.217"></rect><rect x="4.741" y="59.318" transform="matrix(0.7069 0.7073 -0.7073 0.7069 46.4548 12.7438)" display="inline" width="6.219" height="6.216"></rect><rect x="22.323" y="41.732" transform="matrix(0.7071 0.7071 -0.7071 0.7071 39.1562 -4.8498)" display="inline" width="6.218" height="6.217"></rect><rect x="26.689" y="37.366" transform="matrix(0.7071 0.7071 -0.7071 0.7071 37.3471 -9.2157)" display="inline" width="6.218" height="6.217"></rect></g><g xmlns="http://www.w3.org/2000/svg"><circle cx="12.721" cy="36.052" r="7.059"></circle><path d="M53.198,28.337l-5.713,5.712c-0.169,0.169-0.314,0.339-0.423,0.533c-0.279,0.387-0.448,0.811-0.533,1.259   c-0.048,0.23-0.072,0.472-0.072,0.714c0,0.23,0.023,0.448,0.06,0.666l0.568,1.331c0.11,0.182,0.243,0.339,0.399,0.497h0.013   c0.411,0.424,0.908,0.714,1.439,0.871c0.134,0.037,0.266,0.073,0.411,0.097c0.049,0,0.097,0.013,0.146,0.024   c0.134,0.024,0.266,0.037,0.411,0.024c0.025,0.012,0.062,0.012,0.085,0.012h0.217h13.894c0.969,0,1.864-0.399,2.493-1.029   c0.642-0.642,1.041-1.525,1.041-2.493c0-1.948-1.586-3.534-3.534-3.534h-5.591l10.492-10.493l3.751,3.751l0.025,0.024   c0.072,0.085,0.157,0.182,0.242,0.267L85.51,39.047c0.69,0.689,1.587,1.041,2.494,1.041s1.804-0.351,2.492-1.041   c1.381-1.38,1.381-3.619,0-4.999l-8.786-8.786c-0.071-0.084-0.156-0.181-0.242-0.267L68.991,12.52   c-0.69-0.69-1.598-1.042-2.493-1.042c-0.109,0-0.229,0-0.339,0.013H52.472v0.024c-0.835,0.049-1.646,0.387-2.275,1.017l-7.128,7.14   l-0.073,0.061c-0.06,0.06-0.132,0.121-0.194,0.181L30.325,32.391c-0.084,0.084-0.17,0.182-0.243,0.266L18.585,44.155   c-0.084,0.084-0.169,0.181-0.242,0.266l-8.677,8.677c-0.109,0.109-0.206,0.218-0.278,0.326c0,0-0.012,0.014-0.024,0.014   c-0.013,0.012-0.013,0.012-0.037,0.035l-4.986,4.986c-0.327,0.327-0.593,0.727-0.774,1.175c-0.037,0.108-0.072,0.205-0.109,0.314   C3.349,60.274,3.3,60.613,3.3,60.952c0,0.109,0,0.229,0.012,0.338v6.73c0,0.012,0,0.012,0,0.023v4.538c0,0.013,0,0.013,0,0.024   c0,1.937,1.585,3.497,3.521,3.497c1.949,0,3.534-1.572,3.534-3.521V62.417l2.215-2.215v22.329L1.134,93.967   c-0.689,0.689-1.029,1.598-1.029,2.493c0,0.908,0.339,1.815,1.029,2.506c1.38,1.379,3.619,1.379,4.998,0l12.478-12.49   c0.097-0.097,0.194-0.205,0.278-0.314c0.061-0.073,0.121-0.157,0.169-0.242c0.121-0.182,0.23-0.376,0.303-0.568   c0.037-0.073,0.061-0.146,0.097-0.23c0.121-0.362,0.182-0.75,0.182-1.138v-11.4h14.123v14.111c0,0.98,0.399,1.852,1.042,2.494   c0.641,0.64,1.513,1.04,2.492,1.04c1.949,0,3.522-1.585,3.522-3.534V69.048c0-1.947-1.573-3.533-3.522-3.533H26.706V46.03   l2.917-2.917c0.048-0.048,0.085-0.085,0.121-0.133l6.317-6.317c0.084-0.084,0.169-0.182,0.242-0.266l3.655-3.655   c0.085-0.073,0.182-0.158,0.266-0.242l10.421-10.42h8.811l-6.196,6.196C53.233,28.3,53.222,28.312,53.198,28.337z"></path><rect x="46.458" y="46.558" width="53.437" height="53.437"></rect><circle cx="37.242" cy="11.486" r="7.059"></circle></g></g><g id="SvgjsG3494" featurekey="nameFeature-0" transform="matrix(0.39578505869012154,0,0,0.39578505869012154,79.12927219147166,8.503882246612282)" fill="#fefed5"><path d="M37.72 47.08 c0.72 -0.36 1.08 0.68 0.88 0.96 c-1.36 1.88 -7.32 2.28 -10.68 -0.24 l-6.68 -4.96 c-1.72 -1.28 -3.44 -2.2 -4.68 -2.2 c-8.28 -0.04 -14.36 -6.2 -14.36 -14.48 c0 -8.08 5.76 -14.8 14.52 -14.8 c8.36 0 14.44 6.12 14.44 14.44 c0 6 -3.12 11.24 -8.32 13.56 c0.76 0.12 1.04 0.32 1.48 0.64 l6.68 4.96 c3.28 2.44 5.28 2.84 6.72 2.12 z M7 23.92 c0 8.16 5.48 14 11.2 14 c3.52 0 8.2 -2.32 8.2 -9.88 c0 -8.08 -5.48 -13.96 -11.24 -13.96 c-3.52 0 -8.16 2.32 -8.16 9.84 z M50.400000000000006 40.64 c-5.64 0 -11.96 -3 -11.96 -11.12 l0 -12.56 c0 -2.52 -1.28 -3.36 -3.24 -3.6 c-0.32 -0.04 -0.08 -1.36 0.24 -1.36 l10.92 0 c0.32 0 0.56 1.32 0.24 1.36 c-1.6 0.2 -3.2 0.8 -3.2 3.6 l0 12.76 c0 5.6 3.24 8.2 7.48 8.2 c4.36 0 7.84 -2.6 7.84 -8.2 l0 -12.76 c0 -2.6 -1.48 -3.32 -3.44 -3.6 c-0.28 -0.04 -0.08 -1.36 0.24 -1.36 l9 0 c0.28 0 0.52 1.32 0.2 1.36 c-1.6 0.2 -3.2 0.8 -3.2 3.6 l0 12.52 c0 7.36 -4.76 11.16 -11.12 11.16 z M97.16 38.64 c0.56 0.08 0.4 1.36 -0.08 1.36 l-10.56 0 c-0.52 0 -0.56 -1.28 -0.12 -1.36 c1.48 -0.28 3.08 -0.8 1.6 -4.24 l-0.44 -1 c-0.4 -0.96 -1.08 -1.04 -2.28 -1.04 l-8.16 0 c-1.2 0 -1.88 0.08 -2.28 1.04 l-0.4 1 c-1.4 3.44 0.12 3.96 2.04 4.24 c0.52 0.08 0.4 1.36 -0.12 1.36 l-8.64 0 c-0.48 0 -0.6 -1.28 -0.12 -1.36 c1.64 -0.28 2.6 -0.84 4.08 -4.24 l6.76 -15.52 c1.56 -3.52 2.04 -5.16 2.04 -6.68 c0 -0.24 2.8 -0.88 2.92 -0.6 l9.76 22.76 c1.44 3.4 2.4 4.04 4 4.28 z M85 30.119999999999997 c0.56 0 1.16 -0.08 0.92 -0.64 l-4.68 -11.2 l-4.72 11.2 c-0.24 0.56 0.36 0.64 0.92 0.64 l7.56 0 z M126.64000000000001 40.4 c-0.68 0 -1.04 -0.28 -1.48 -0.76 l-19.04 -19.92 l0 15.2 c0 2.72 1.6 3.16 3.88 3.72 c0.32 0.08 0.16 1.36 -0.24 1.36 l-9.48 0 c-0.32 0 -0.56 -1.24 -0.2 -1.36 c1.68 -0.56 3.28 -0.88 3.28 -3.72 l0 -15.52 c0 -2.84 -0.44 -4.2 -1.48 -5.6 c-0.36 -0.48 -0.72 -0.8 -0.72 -0.92 c0 -0.36 0.24 -0.88 0.8 -0.88 l2.96 0 c0.4 0 0.68 0.04 0.96 0.36 l18.64 19.72 l0 -15.04 c0 -2.84 -1.8 -3.16 -3.88 -3.68 c-0.32 -0.08 -0.16 -1.36 0.24 -1.36 l9.48 0 c0.32 0 0.52 1.28 0.2 1.36 c-1.76 0.52 -3.28 0.84 -3.28 3.68 l0 15.56 c0 2.64 0.08 5.56 0.48 7.04 c0.16 0.6 -0.48 0.76 -1.12 0.76 z M139.88 40 c-0.36 0 -0.6 -1.28 -0.28 -1.32 c2.76 -0.36 4.6 -0.92 4.6 -3.08 l0 -19.72 c0 -1 -0.36 -1.32 -1.32 -1.32 l-1.08 0 c-3.8 0 -5.92 0.88 -6.72 2.6 c-0.36 0.8 -1.72 0.68 -1.56 0 c0.36 -1.44 0.68 -2.68 0.92 -4.8 c0.08 -0.76 0.52 -0.72 1.24 -0.64 c1.84 0.2 3.52 0.28 11.12 0.28 s10.28 -0.08 12.2 -0.28 c0.72 -0.08 1.4 -0.12 1.16 0.64 c-0.6 1.88 -1 3.36 -1.24 4.8 c-0.12 0.68 -1.2 0.72 -1.36 0 c-0.4 -1.68 -2.16 -2.6 -5.6 -2.6 l-1.24 0 c-0.96 0 -1.56 0.32 -1.56 1.32 l0 19.72 c0 2.16 1.84 2.72 4.6 3.08 c0.32 0.04 0.08 1.32 -0.28 1.32 l-13.6 0 z M178.16 40.64 c-5.64 0 -11.96 -3 -11.96 -11.12 l0 -12.56 c0 -2.52 -1.28 -3.36 -3.24 -3.6 c-0.32 -0.04 -0.08 -1.36 0.24 -1.36 l10.92 0 c0.32 0 0.56 1.32 0.24 1.36 c-1.6 0.2 -3.2 0.8 -3.2 3.6 l0 12.76 c0 5.6 3.24 8.2 7.48 8.2 c4.36 0 7.84 -2.6 7.84 -8.2 l0 -12.76 c0 -2.6 -1.48 -3.32 -3.44 -3.6 c-0.28 -0.04 -0.08 -1.36 0.24 -1.36 l9 0 c0.28 0 0.52 1.32 0.2 1.36 c-1.6 0.2 -3.2 0.8 -3.2 3.6 l0 12.52 c0 7.36 -4.76 11.16 -11.12 11.16 z M231.28000000000003 38.64 c0.32 0.04 0.08 1.36 -0.2 1.36 l-10.44 0 c-0.28 0 -0.48 -1.32 -0.24 -1.36 c1.68 -0.28 2.92 -1.08 2.8 -3.6 l-0.76 -13.44 l-6.48 13.2 c-0.84 1.72 -1.48 3.48 -1.6 4.12 c-0.08 0.48 -0.92 0.72 -1.56 0.72 c-0.6 0 -1 -0.24 -1.24 -0.72 l-9.24 -17.52 l-0.6 13.64 c-0.12 2.8 1.52 3.44 2.8 3.6 c0.32 0.04 0.08 1.36 -0.2 1.36 l-8.28 0 c-0.32 0 -0.56 -1.32 -0.24 -1.36 c1.72 -0.2 3.16 -0.8 3.32 -3.6 l1.28 -22.96 c0.04 -0.68 1.56 -0.72 1.96 0 l11.6 21.68 l10.76 -21.68 c0.36 -0.72 1.96 -0.68 2 0 l1.28 22.96 c0.16 2.8 1.6 3.4 3.28 3.6 z M272.68 38.64 c0.32 0.04 0.08 1.36 -0.24 1.36 l-10.96 0 c-0.32 0 -0.56 -1.32 -0.24 -1.36 c2.04 -0.28 3.32 -1.08 3.32 -3.6 l0 -6.88 c-0.2 -0.68 -1.04 -0.68 -1.8 -0.68 l-10.24 0 c-0.76 0 -1.6 0 -1.8 0.68 l0 6.88 c0 2.8 1.6 3.36 3.32 3.6 c0.32 0.04 0.08 1.36 -0.24 1.36 l-10.96 0 c-0.32 0 -0.56 -1.32 -0.24 -1.36 c2.04 -0.28 3.32 -1.08 3.32 -3.6 l0 -18.08 c0 -2.52 -1.28 -3.32 -3.32 -3.6 c-0.32 -0.04 -0.08 -1.36 0.24 -1.36 l10.96 0 c0.32 0 0.56 1.32 0.24 1.36 c-1.72 0.24 -3.32 0.8 -3.32 3.6 l0 7.32 c0.2 0.68 1.04 0.68 1.8 0.68 l10.24 0 c0.76 0 1.6 0 1.8 -0.68 l0 -7.32 c0 -2.52 -1.28 -3.32 -3.32 -3.6 c-0.32 -0.04 -0.08 -1.36 0.24 -1.36 l10.96 0 c0.32 0 0.56 1.32 0.24 1.36 c-1.72 0.24 -3.32 0.8 -3.32 3.6 l0 18.08 c0 2.8 1.6 3.36 3.32 3.6 z M291.20000000000005 40.64 c-5.64 0 -11.96 -3 -11.96 -11.12 l0 -12.56 c0 -2.52 -1.28 -3.36 -3.24 -3.6 c-0.32 -0.04 -0.08 -1.36 0.24 -1.36 l10.92 0 c0.32 0 0.56 1.32 0.24 1.36 c-1.6 0.2 -3.2 0.8 -3.2 3.6 l0 12.76 c0 5.6 3.24 8.2 7.48 8.2 c4.36 0 7.84 -2.6 7.84 -8.2 l0 -12.76 c0 -2.6 -1.48 -3.32 -3.44 -3.6 c-0.28 -0.04 -0.08 -1.36 0.24 -1.36 l9 0 c0.28 0 0.52 1.32 0.2 1.36 c-1.6 0.2 -3.2 0.8 -3.2 3.6 l0 12.52 c0 7.36 -4.76 11.16 -11.12 11.16 z M325.76000000000005 24.759999999999998 c3.72 0 7.32 2.68 7.32 7.16 c0 4.96 -4.52 8.16 -11.2 8.16 c-1.92 0 -4.16 -0.24 -7.12 -0.24 c-2.52 0 -4.44 0.04 -6.28 0.24 c-0.36 0.04 -0.56 -1.36 -0.24 -1.44 c2.32 -0.6 4.12 -0.96 4.12 -3.92 l0 -17.76 c0 -2.56 -1.64 -3.24 -3.36 -3.68 c-0.32 -0.08 -0.12 -1.4 0.2 -1.36 c1.64 0.2 3.56 0.24 4.84 0.24 c3.2 0 5.56 -0.24 7.32 -0.24 c5.16 0 9.4 2.16 9.44 6.56 c0.04 3.24 -2.24 5.48 -5.04 6.04 l0 0.24 z M320.00000000000006 14 c-2.12 0 -2.84 0.72 -2.84 2.96 l0 7.12 l4.12 0 c2.88 0 4.56 -1.44 4.56 -4.52 c0 -3.8 -2.56 -5.56 -5.84 -5.56 z M321.76000000000005 38 c3.52 0 6.16 -1.04 6.16 -5.2 c0 -4.4 -2.92 -6.72 -6.64 -6.72 l-4.12 0 l0 8.64 c0 2.2 1.12 3.28 4.6 3.28 z M353.32000000000005 40.64 c-3.28 0 -8.28 -1.44 -7.8 -3.2 l0.4 -1.48 c1.12 -4.2 2.44 1.96 9.04 1.96 c3.36 0 5 -1.64 5 -3.96 c0 -1.88 -1.2 -2.68 -4.04 -4.44 l-3.88 -2.44 c-4.32 -2.72 -6.08 -4.4 -6.08 -7.4 c0 -4.92 4.8 -8.32 9.76 -8.32 c3.04 0 6.92 1.32 6.48 2.68 l-0.48 1.52 c-1.24 3.88 -2.24 -1.48 -7.72 -1.48 c-2.84 0 -4.32 1.44 -4.32 3.56 c0 1.8 1.08 2.8 3.76 4.44 l4.2 2.6 c4.24 2.64 5.96 4.44 5.96 7.32 c0 5 -4.92 8.64 -10.28 8.64 z M382.24 40.64 c-8.32 0 -14.44 -6.16 -14.44 -14.48 c0 -8.08 5.76 -14.8 14.52 -14.8 c8.36 0 14.44 6.12 14.44 14.44 c0 8.12 -5.72 14.84 -14.52 14.84 z M383.8 37.92 c3.52 0 8.2 -2.32 8.2 -9.88 c0 -8.08 -5.48 -13.96 -11.24 -13.96 c-3.52 0 -8.16 2.32 -8.16 9.84 c0 8.16 5.48 14 11.2 14 z M400.36 40.08 c-0.4 0.04 -0.56 -1.36 -0.24 -1.44 c2.32 -0.6 4.12 -0.96 4.12 -3.92 l0 -17.76 c0 -2.8 -1.64 -3.36 -3.36 -3.6 c-0.32 -0.04 -0.08 -1.36 0.2 -1.36 l11.04 0 c0.28 0 0.48 1.32 0.2 1.36 c-1.68 0.2 -3.28 0.8 -3.28 3.6 l0 17.76 c0 2.28 0.96 3.12 4.28 3.12 c6.04 0 8.44 -2.76 9.4 -4.28 c0.28 -0.44 1.36 -0.24 1.36 0.44 c0 2.04 -1.72 6.08 -4.24 6.08 c-2.24 -0.12 -4.44 -0.24 -7.8 -0.24 c-3.68 0 -8.04 -0.12 -11.68 0.24 z M442.04 40.64 c-5.64 0 -11.96 -3 -11.96 -11.12 l0 -12.56 c0 -2.52 -1.28 -3.36 -3.24 -3.6 c-0.32 -0.04 -0.08 -1.36 0.24 -1.36 l10.92 0 c0.32 0 0.56 1.32 0.24 1.36 c-1.6 0.2 -3.2 0.8 -3.2 3.6 l0 12.76 c0 5.6 3.24 8.2 7.48 8.2 c4.36 0 7.84 -2.6 7.84 -8.2 l0 -12.76 c0 -2.6 -1.48 -3.32 -3.44 -3.6 c-0.28 -0.04 -0.08 -1.36 0.24 -1.36 l9 0 c0.28 0 0.52 1.32 0.2 1.36 c-1.6 0.2 -3.2 0.8 -3.2 3.6 l0 12.52 c0 7.36 -4.76 11.16 -11.12 11.16 z M465.48 40 c-0.36 0 -0.6 -1.28 -0.28 -1.32 c2.76 -0.36 4.6 -0.92 4.6 -3.08 l0 -19.72 c0 -1 -0.36 -1.32 -1.32 -1.32 l-1.08 0 c-3.8 0 -5.92 0.88 -6.72 2.6 c-0.36 0.8 -1.72 0.68 -1.56 0 c0.36 -1.44 0.68 -2.68 0.92 -4.8 c0.08 -0.76 0.52 -0.72 1.24 -0.64 c1.84 0.2 3.52 0.28 11.12 0.28 s10.28 -0.08 12.2 -0.28 c0.72 -0.08 1.4 -0.12 1.16 0.64 c-0.6 1.88 -1 3.36 -1.24 4.8 c-0.12 0.68 -1.2 0.72 -1.36 0 c-0.4 -1.68 -2.16 -2.6 -5.6 -2.6 l-1.24 0 c-0.96 0 -1.56 0.32 -1.56 1.32 l0 19.72 c0 2.16 1.84 2.72 4.6 3.08 c0.32 0.04 0.08 1.32 -0.28 1.32 l-13.6 0 z M489 40 c-0.32 0 -0.56 -1.32 -0.24 -1.36 c2.04 -0.28 3.32 -1.08 3.32 -3.6 l0 -18.08 c0 -2.52 -1.28 -3.32 -3.32 -3.6 c-0.32 -0.04 -0.08 -1.36 0.24 -1.36 l10.96 0 c0.32 0 0.56 1.32 0.24 1.36 c-1.72 0.24 -3.32 0.8 -3.32 3.6 l0 18.08 c0 2.8 1.6 3.36 3.32 3.6 c0.32 0.04 0.08 1.36 -0.24 1.36 l-10.96 0 z M518.6 40.64 c-8.32 0 -14.44 -6.16 -14.44 -14.48 c0 -8.08 5.76 -14.8 14.52 -14.8 c8.36 0 14.44 6.12 14.44 14.44 c0 8.12 -5.72 14.84 -14.52 14.84 z M520.16 37.92 c3.52 0 8.2 -2.32 8.2 -9.88 c0 -8.08 -5.48 -13.96 -11.24 -13.96 c-3.52 0 -8.16 2.32 -8.16 9.84 c0 8.16 5.48 14 11.2 14 z M563.4399999999999 40.4 c-0.68 0 -1.04 -0.28 -1.48 -0.76 l-19.04 -19.92 l0 15.2 c0 2.72 1.6 3.16 3.88 3.72 c0.32 0.08 0.16 1.36 -0.24 1.36 l-9.48 0 c-0.32 0 -0.56 -1.24 -0.2 -1.36 c1.68 -0.56 3.28 -0.88 3.28 -3.72 l0 -15.52 c0 -2.84 -0.44 -4.2 -1.48 -5.6 c-0.36 -0.48 -0.72 -0.8 -0.72 -0.92 c0 -0.36 0.24 -0.88 0.8 -0.88 l2.96 0 c0.4 0 0.68 0.04 0.96 0.36 l18.64 19.72 l0 -15.04 c0 -2.84 -1.8 -3.16 -3.88 -3.68 c-0.32 -0.08 -0.16 -1.36 0.24 -1.36 l9.48 0 c0.32 0 0.52 1.28 0.2 1.36 c-1.76 0.52 -3.28 0.84 -3.28 3.68 l0 15.56 c0 2.64 0.08 5.56 0.48 7.04 c0.16 0.6 -0.48 0.76 -1.12 0.76 z M579.3599999999999 40.64 c-3.28 0 -8.28 -1.44 -7.8 -3.2 l0.4 -1.48 c1.12 -4.2 2.44 1.96 9.04 1.96 c3.36 0 5 -1.64 5 -3.96 c0 -1.88 -1.2 -2.68 -4.04 -4.44 l-3.88 -2.44 c-4.32 -2.72 -6.08 -4.4 -6.08 -7.4 c0 -4.92 4.8 -8.32 9.76 -8.32 c3.04 0 6.92 1.32 6.48 2.68 l-0.48 1.52 c-1.24 3.88 -2.24 -1.48 -7.72 -1.48 c-2.84 0 -4.32 1.44 -4.32 3.56 c0 1.8 1.08 2.8 3.76 4.44 l4.2 2.6 c4.24 2.64 5.96 4.44 5.96 7.32 c0 5 -4.92 8.64 -10.28 8.64 z"></path></g><g id="SvgjsG3495" featurekey="sloganFeature-0" transform="matrix(0.41310916564349115,0,0,0.41310916564349115,94.79351458381748,37.65354020704566)" fill="#fefed5"><path d="M9.34 12.379999999999999 c1.86 0 3.66 1.34 3.66 3.58 c0 2.48 -2.26 4.08 -5.6 4.08 c-0.96 0 -2.08 -0.12 -3.56 -0.12 c-1.26 0 -2.22 0.02 -3.14 0.12 c-0.18 0.02 -0.28 -0.68 -0.12 -0.72 c1.16 -0.3 2.06 -0.48 2.06 -1.96 l0 -8.88 c0 -1.28 -0.82 -1.62 -1.68 -1.84 c-0.16 -0.04 -0.06 -0.7 0.1 -0.68 c0.82 0.1 1.78 0.12 2.42 0.12 c1.6 0 2.78 -0.12 3.66 -0.12 c2.58 0 4.7 1.08 4.72 3.28 c0.02 1.62 -1.12 2.74 -2.52 3.02 l0 0.12 z M6.46 7 c-1.06 0 -1.42 0.36 -1.42 1.48 l0 3.56 l2.06 0 c1.44 0 2.28 -0.72 2.28 -2.26 c0 -1.9 -1.28 -2.78 -2.92 -2.78 z M7.34 19 c1.76 0 3.08 -0.52 3.08 -2.6 c0 -2.2 -1.46 -3.36 -3.32 -3.36 l-2.06 0 l0 4.32 c0 1.1 0.56 1.64 2.3 1.64 z M48.125 19.5 c0.16 0 0.12 0.54 0 0.58 c-1.26 0.42 -3 0.36 -4.2 -1.18 l-3.08 -3.96 c-0.86 -1.12 -1.88 -1.28 -3.28 -1.3 l0 3.88 c0 1.4 0.96 1.64 2.24 1.8 c0.14 0.02 0.04 0.68 -0.12 0.68 l-6.06 0 c-0.16 0 -0.28 -0.66 -0.12 -0.68 c1.02 -0.14 1.66 -0.54 1.66 -1.8 l0 -8.92 c0 -1.32 -0.7 -1.7 -1.66 -1.96 c-0.16 -0.04 -0.06 -0.7 0.12 -0.68 c0.78 0.1 1.66 0.12 2.3 0.12 c1.48 0 2.86 -0.12 3.82 -0.12 c3.02 0 5.04 1.24 5.04 3.7 c0 2.32 -1.88 3.46 -3.56 3.56 l0 0.1 c0.8 0 1.38 0.34 2.26 1.44 l2.98 3.74 c0.62 0.78 1.22 1 1.66 1 z M38.144999999999996 12.719999999999999 c2.98 0 4.12 -0.52 4.12 -2.52 c0 -2.14 -1.36 -3.2 -3.14 -3.2 c-1.18 0 -1.56 0.48 -1.56 1.6 l0 4.12 l0.58 0 z M68.05000000000001 20 c-0.16 0 -0.28 -0.66 -0.12 -0.68 c1.02 -0.14 1.66 -0.54 1.66 -1.8 l0 -9.04 c0 -1.26 -0.64 -1.66 -1.66 -1.8 c-0.16 -0.02 -0.04 -0.68 0.12 -0.68 l5.48 0 c0.16 0 0.28 0.66 0.12 0.68 c-0.86 0.12 -1.66 0.4 -1.66 1.8 l0 9.04 c0 1.4 0.8 1.68 1.66 1.8 c0.16 0.02 0.04 0.68 -0.12 0.68 l-5.48 0 z M93.75500000000001 20.04 c-0.2 0.02 -0.28 -0.68 -0.12 -0.72 c1.16 -0.3 2.06 -0.48 2.06 -1.96 l0 -8.88 c0 -1.28 -0.82 -1.62 -1.68 -1.84 c-0.16 -0.04 -0.06 -0.7 0.1 -0.68 c0.82 0.1 1.66 0.12 2.5 0.12 c1.56 0 2.96 -0.12 3.98 -0.12 c4.84 0 7.46 2.88 7.46 6.74 c0 3.84 -2.62 7.34 -7.48 7.34 c-0.96 0 -2.2 -0.12 -3.68 -0.12 c-1.24 0 -2.22 0.02 -3.14 0.12 z M100.775 18.98 c3.26 0 4.88 -1.76 4.88 -5.14 c0 -3.82 -2.08 -6.82 -5.68 -6.82 c-1.42 0 -1.88 0.44 -1.88 1.46 l0 8.88 c0 1.08 0.74 1.62 2.68 1.62 z M137.3 20.32 c-4.78 0 -8.62 -2.36 -8.62 -7.06 c0 -3.82 2.62 -7.58 8.18 -7.58 c2.44 0 4.34 0.72 4.1 1.4 l-0.3 0.84 c-0.7 1.98 -1.5 -0.62 -5.24 -0.62 c-3.1 0 -4.52 1.78 -4.52 4.8 c0 4.5 3.06 6.94 5.82 6.94 c1.44 0 1.98 -0.7 1.98 -1.84 l0 -0.36 c0 -1.52 -0.68 -2.02 -2.28 -2.26 c-0.26 -0.04 -0.02 -0.76 0.42 -0.76 l5.14 0 c0.56 0 0.36 0.7 0.14 0.76 c-0.74 0.2 -1.24 0.62 -1.24 1.9 l0 0.7 c0 0.48 0.04 0.9 0.42 1.52 c-1.2 0.66 -3.52 1.62 -4 1.62 z M162.565 20.04 c-0.2 0.02 -0.28 -0.68 -0.12 -0.72 c1.16 -0.3 2.06 -0.48 2.06 -1.96 l0 -8.88 c0 -1.28 -0.82 -1.62 -1.68 -1.84 c-0.16 -0.04 -0.06 -0.7 0.1 -0.68 c1.46 0.16 3.98 0.12 5.2 0.12 c1.82 0 3.14 -0.08 4.78 -0.12 c0.48 0 0.48 0.32 0.38 0.78 l-0.48 1.9 c-0.06 0.28 -0.56 0.28 -0.64 0 c-0.3 -0.98 -0.9 -1.54 -3.4 -1.54 c-1.4 0 -1.86 0.36 -1.86 1.4 l0 3.26 c0 0.52 0.26 0.62 0.66 0.62 l0.44 0 c1.62 0 3.02 -0.16 3.84 -0.9 c0.2 -0.18 0.64 -0.14 0.46 0.26 l-1.14 2.52 c-0.16 0.36 -0.46 0.32 -0.68 0.02 c-0.46 -0.64 -1.48 -0.9 -2.64 -0.9 l-0.28 0 c-0.4 0 -0.66 0.1 -0.66 0.62 l0 3.36 c0 1.14 0.48 1.56 2.14 1.56 c3.02 0 4.22 -1.38 4.7 -2.14 c0.14 -0.22 0.68 -0.12 0.68 0.22 c0 1.02 -0.86 3.04 -2.12 3.04 c-1.12 -0.06 -2.22 -0.12 -3.9 -0.12 c-1.84 0 -4.02 -0.06 -5.84 0.12 z M219.955 20 c-0.18 0 -0.3 -0.64 -0.14 -0.66 c1.38 -0.18 2.3 -0.46 2.3 -1.54 l0 -9.86 c0 -0.5 -0.18 -0.66 -0.66 -0.66 l-0.54 0 c-1.9 0 -2.96 0.44 -3.36 1.3 c-0.18 0.4 -0.86 0.34 -0.78 0 c0.18 -0.72 0.34 -1.34 0.46 -2.4 c0.04 -0.38 0.26 -0.36 0.62 -0.32 c0.92 0.1 1.76 0.14 5.56 0.14 s5.14 -0.04 6.1 -0.14 c0.36 -0.04 0.7 -0.06 0.58 0.32 c-0.3 0.94 -0.5 1.68 -0.62 2.4 c-0.06 0.34 -0.6 0.36 -0.68 0 c-0.2 -0.84 -1.08 -1.3 -2.8 -1.3 l-0.62 0 c-0.48 0 -0.78 0.16 -0.78 0.66 l0 9.86 c0 1.08 0.92 1.36 2.3 1.54 c0.16 0.02 0.04 0.66 -0.14 0.66 l-6.8 0 z M257.56 20.32 c-4.16 0 -7.22 -3.08 -7.22 -7.24 c0 -4.04 2.88 -7.4 7.26 -7.4 c4.18 0 7.22 3.06 7.22 7.22 c0 4.06 -2.86 7.42 -7.26 7.42 z M258.34000000000003 18.96 c1.76 0 4.1 -1.16 4.1 -4.94 c0 -4.04 -2.74 -6.98 -5.62 -6.98 c-1.76 0 -4.08 1.16 -4.08 4.92 c0 4.08 2.74 7 5.6 7 z M311.99 20.32 c-1.64 0 -4.14 -0.72 -3.9 -1.6 l0.2 -0.74 c0.56 -2.1 1.22 0.98 4.52 0.98 c1.68 0 2.5 -0.82 2.5 -1.98 c0 -0.94 -0.6 -1.34 -2.02 -2.22 l-1.94 -1.22 c-2.16 -1.36 -3.04 -2.2 -3.04 -3.7 c0 -2.46 2.4 -4.16 4.88 -4.16 c1.52 0 3.46 0.66 3.24 1.34 l-0.24 0.76 c-0.62 1.94 -1.12 -0.74 -3.86 -0.74 c-1.42 0 -2.16 0.72 -2.16 1.78 c0 0.9 0.54 1.4 1.88 2.22 l2.1 1.3 c2.12 1.32 2.98 2.22 2.98 3.66 c0 2.5 -2.46 4.32 -5.14 4.32 z M345.035 20.32 c-2.82 0 -5.98 -1.5 -5.98 -5.56 l0 -6.28 c0 -1.26 -0.64 -1.68 -1.62 -1.8 c-0.16 -0.02 -0.04 -0.68 0.12 -0.68 l5.46 0 c0.16 0 0.28 0.66 0.12 0.68 c-0.8 0.1 -1.6 0.4 -1.6 1.8 l0 6.38 c0 2.8 1.62 4.1 3.74 4.1 c2.18 0 3.92 -1.3 3.92 -4.1 l0 -6.38 c0 -1.3 -0.74 -1.66 -1.72 -1.8 c-0.14 -0.02 -0.04 -0.68 0.12 -0.68 l4.5 0 c0.14 0 0.26 0.66 0.1 0.68 c-0.8 0.1 -1.6 0.4 -1.6 1.8 l0 6.26 c0 3.68 -2.38 5.58 -5.56 5.58 z M380.5 20.32 c-3.36 0 -7.9 -1.96 -7.9 -7.06 c0 -3.46 2.12 -7.58 7.72 -7.58 c2.32 0 4.32 0.72 4.08 1.42 l-0.26 0.78 c-0.72 2.14 -1.5 -0.6 -5.06 -0.6 c-2.86 0 -4.26 1.86 -4.26 4.74 c0 4.5 3.42 6.38 6.16 6.38 c0.36 0 2.18 -0.28 3.22 -0.94 c0.16 -0.1 0.58 0.36 0.46 0.54 c-0.86 1.26 -3.54 2.32 -4.16 2.32 z M413.205 20.32 c-3.36 0 -7.9 -1.96 -7.9 -7.06 c0 -3.46 2.12 -7.58 7.72 -7.58 c2.32 0 4.32 0.72 4.08 1.42 l-0.26 0.78 c-0.72 2.14 -1.5 -0.6 -5.06 -0.6 c-2.86 0 -4.26 1.86 -4.26 4.74 c0 4.5 3.42 6.38 6.16 6.38 c0.36 0 2.18 -0.28 3.22 -0.94 c0.16 -0.1 0.58 0.36 0.46 0.54 c-0.86 1.26 -3.54 2.32 -4.16 2.32 z M437.60999999999996 20.04 c-0.2 0.02 -0.28 -0.68 -0.12 -0.72 c1.16 -0.3 2.06 -0.48 2.06 -1.96 l0 -8.88 c0 -1.28 -0.82 -1.62 -1.68 -1.84 c-0.16 -0.04 -0.06 -0.7 0.1 -0.68 c1.46 0.16 3.98 0.12 5.2 0.12 c1.82 0 3.14 -0.08 4.78 -0.12 c0.48 0 0.48 0.32 0.38 0.78 l-0.48 1.9 c-0.06 0.28 -0.56 0.28 -0.64 0 c-0.3 -0.98 -0.9 -1.54 -3.4 -1.54 c-1.4 0 -1.86 0.36 -1.86 1.4 l0 3.26 c0 0.52 0.26 0.62 0.66 0.62 l0.44 0 c1.62 0 3.02 -0.16 3.84 -0.9 c0.2 -0.18 0.64 -0.14 0.46 0.26 l-1.14 2.52 c-0.16 0.36 -0.46 0.32 -0.68 0.02 c-0.46 -0.64 -1.48 -0.9 -2.64 -0.9 l-0.28 0 c-0.4 0 -0.66 0.1 -0.66 0.62 l0 3.36 c0 1.14 0.48 1.56 2.14 1.56 c3.02 0 4.22 -1.38 4.7 -2.14 c0.14 -0.22 0.68 -0.12 0.68 0.22 c0 1.02 -0.86 3.04 -2.12 3.04 c-1.12 -0.06 -2.22 -0.12 -3.9 -0.12 c-1.84 0 -4.02 -0.06 -5.84 0.12 z M473.91499999999996 20.32 c-1.64 0 -4.14 -0.72 -3.9 -1.6 l0.2 -0.74 c0.56 -2.1 1.22 0.98 4.52 0.98 c1.68 0 2.5 -0.82 2.5 -1.98 c0 -0.94 -0.6 -1.34 -2.02 -2.22 l-1.94 -1.22 c-2.16 -1.36 -3.04 -2.2 -3.04 -3.7 c0 -2.46 2.4 -4.16 4.88 -4.16 c1.52 0 3.46 0.66 3.24 1.34 l-0.24 0.76 c-0.62 1.94 -1.12 -0.74 -3.86 -0.74 c-1.42 0 -2.16 0.72 -2.16 1.78 c0 0.9 0.54 1.4 1.88 2.22 l2.1 1.3 c2.12 1.32 2.98 2.22 2.98 3.66 c0 2.5 -2.46 4.32 -5.14 4.32 z M503.7 20.32 c-1.64 0 -4.14 -0.72 -3.9 -1.6 l0.2 -0.74 c0.56 -2.1 1.22 0.98 4.52 0.98 c1.68 0 2.5 -0.82 2.5 -1.98 c0 -0.94 -0.6 -1.34 -2.02 -2.22 l-1.94 -1.22 c-2.16 -1.36 -3.04 -2.2 -3.04 -3.7 c0 -2.46 2.4 -4.16 4.88 -4.16 c1.52 0 3.46 0.66 3.24 1.34 l-0.24 0.76 c-0.62 1.94 -1.12 -0.74 -3.86 -0.74 c-1.42 0 -2.16 0.72 -2.16 1.78 c0 0.9 0.54 1.4 1.88 2.22 l2.1 1.3 c2.12 1.32 2.98 2.22 2.98 3.66 c0 2.5 -2.46 4.32 -5.14 4.32 z"></path></g></svg>